<?xml version="1.0" encoding="utf-8"?>
<!-- Generator: Adobe Illustrator 24.3.0, SVG Export Plug-In . SVG Version: 6.00 Build 0)  -->
<svg version="1.1" id="Layer_1" xmlns="http://www.w3.org/2000/svg" xmlns:xlink="http://www.w3.org/1999/xlink" x="0px" y="0px"
	 viewBox="0 0 87 54" enable-background="new 0 0 87 54" xml:space="preserve">
<g>
	<g>
		<path fill="#606161" d="M75,27L60,0H5.8C2.6,0,0,2.6,0,5.8v42.4C0,51.4,2.6,54,5.8,54H60L75,27z"/>
		<path fill="#BC1F40" d="M73.5,2.8c-1.1-1.7-3-2.8-5-2.8H64l15.2,27L64,54h4.5c2.1,0,4-1.1,5-2.8L87,27L73.5,2.8z"/>
	</g>
	<g>
		<rect x="32" y="15" fill="#FFFFFF" width="4" height="24"/>
		<polygon fill="#FFFFFF" points="9,15 9,39 13,39 13,21.4 24,39 28,39 28,15 24,15 24,32.6 13,15 		"/>
		<polygon fill="#FFFFFF" points="44,15 40,15 40,39 44,39 44,29 55,29 55,39 59,39 59,15 55,15 55,25 44,25 		"/>
	</g>
</g>
</svg>
